# Blender v2.79 (sub 0) OBJ File: ''
# www.blender.org
mtllib face203.mtl
o face003
v -0.293586 2.355950 -0.336179
v -0.163253 2.447809 -0.260278
v 0.189813 1.955565 0.004999
v -0.148142 2.355826 -0.116918
v 0.218826 1.959781 -0.074921
v 0.257304 1.798686 -0.074964
v 0.318422 1.383972 0.122730
v 0.261586 1.152259 0.083910
v 0.095726 1.932953 -0.016181
v 0.189516 1.554013 0.051885
v 0.232624 1.487489 -0.006203
v 0.010972 2.010867 -0.114966
v -0.178896 0.547439 0.147734
v -0.143898 0.520653 0.192291
v -2.281609 2.632695 0.056344
v -1.798365 2.689606 -0.066686
v -0.307795 2.351924 -0.138727
v -0.597568 2.506013 -0.171182
v -0.493642 2.344903 -0.284869
v -1.251293 2.567336 -0.100975
v -0.219191 2.217832 -0.197993
v 0.112365 1.175270 0.111318
v -0.358848 0.154508 -0.076570
v -0.191455 0.449607 0.147591
v -0.397370 0.040601 -0.073821
v -0.302682 0.426054 0.125216
v -0.281906 0.312273 0.130984
v -0.445157 0.150617 0.007274
v -0.317632 0.098897 -0.106425
v -0.327444 0.071566 -0.572960
v -0.218639 0.363606 -1.045758
v -0.327376 0.016734 -0.603289
v -0.276073 0.072645 -0.591956
v -0.138879 0.740734 -1.087882
v -0.184976 0.416594 -0.998345
v -0.225538 0.437322 -0.978376
v 0.441679 1.638730 -0.601756
v 0.409006 1.687966 -0.625063
v 0.520729 1.776519 -0.441889
v 0.189530 1.421481 -0.700311
v -0.039213 0.999383 -0.913831
v -0.075142 1.038171 -0.932444
v 2.895464 0.843916 0.689571
v 0.300366 1.478632 -0.639725
v 1.490359 2.104596 0.410524
v 0.647235 1.744381 -0.334648
v 2.341824 1.307264 1.242975
v 1.409296 2.077971 0.293508
v 1.129457 1.973767 0.106286
v 2.246760 1.719933 1.120374
v 0.034683 1.150721 -0.951739
v 2.145162 1.837709 1.073874
v 1.101045 2.002604 0.010703
v 1.633494 2.066694 0.564876
v 1.813761 2.095321 0.689495
v 2.213755 1.699500 1.148969
v 1.822561 2.091787 0.762032
v 2.303347 1.662401 1.185359
v 2.195894 1.897005 1.075685
v 2.070209 1.979001 0.945720
v 1.920691 2.002726 0.849548
v 2.338320 1.264928 1.250000
v 2.347937 1.133618 1.239745
v 2.337060 1.188755 1.202809
v 2.289332 1.240952 1.200823
v 2.533675 0.859782 1.079146
v 2.754078 0.803706 0.890749
v 2.544753 0.851328 1.032575
v 2.359944 1.013376 1.159843
v 2.404043 0.940882 1.138721
v 2.918528 0.901082 0.600021
v 2.872861 0.881739 0.659866
v 2.695231 0.919272 0.225739
v 2.680242 0.902603 0.207631
v 2.735370 0.937688 0.201147
v 2.014009 0.936089 -0.423144
v 1.834444 0.918504 -0.520252
v 0.838339 0.899856 -1.120601
v 1.963195 0.928278 -0.479201
v -1.962750 2.677308 -0.007303
v -2.898917 2.114365 0.030110
v -2.362375 2.600152 0.011260
v -2.058260 2.735446 0.010443
v -1.806078 2.736546 -0.065850
v -2.833442 1.862573 -0.064144
v -2.679345 2.437163 0.092191
v -2.676076 2.487946 0.048763
v -2.804451 1.378611 -0.213673
v -2.679160 2.353772 0.049830
v -2.902512 1.764090 -0.061552
v -2.721984 1.302348 -0.247818
v -2.693291 1.334260 -0.272193
v -2.515315 1.113239 -0.386054
v -2.793715 1.389627 -0.252420
v -2.281905 1.104038 -0.419784
v -1.928161 1.222693 -0.512875
v -2.329892 1.221043 -0.405262
v -1.490295 1.504080 -0.536938
v -1.855073 1.332475 -0.467122
v -1.192323 1.716222 -0.501155
v -1.778549 1.257093 -0.497570
v -1.044322 2.069502 -0.506161
v -1.098220 1.919300 -0.508091
v -1.214361 1.775854 -0.480180
v -1.125620 2.116592 -0.495891
v -1.115563 2.054517 -0.512949
v -1.177200 2.662282 -0.755162
v -1.148585 2.708297 -0.777344
v -1.431257 2.939896 -1.014439
v -1.121903 2.597503 -0.685669
v -1.680609 3.036142 -1.207624
v -1.331675 2.914920 -0.971217
v -1.377567 2.944000 -0.976022
v -1.934311 2.980442 -1.277710
vn 0.4730 0.0554 -0.8793
vn 0.5674 0.1357 -0.8122
vn -0.6321 -0.7612 -0.1453
vn -0.5245 -0.7266 -0.4438
vn 0.2302 -0.2340 -0.9446
vn 0.2701 -0.2281 -0.9354
vn 0.9562 0.2283 0.1834
vn -0.1374 0.1538 0.9785
vn -0.3372 0.7545 -0.5630
vn 0.0792 -0.2579 0.9629
vn 0.2163 0.8319 0.5110
vn -0.3315 -0.9029 -0.2735
vn -0.1300 -0.7354 -0.6651
vn -0.6648 -0.7468 -0.0186
vn -0.7294 -0.6147 0.3003
vn -0.2439 0.1126 0.9632
vn 0.6979 0.6558 0.2880
vn 0.6575 0.6638 0.3566
vn -0.2044 -0.4053 -0.8910
vn -0.2397 0.0920 0.9665
vn -0.8315 -0.0562 -0.5527
vn -0.7886 -0.0858 0.6089
vn 0.8997 0.2727 0.3410
vn -0.3654 0.1082 0.9246
vn 0.8476 -0.1214 -0.5166
vn -0.6843 0.1747 -0.7079
vn -0.2554 0.2004 0.9458
vn 0.6246 -0.2756 0.7307
vn -0.4339 0.2253 0.8723
vn -0.2794 0.2249 0.9335
vn -0.1744 0.0238 -0.9844
vn -0.6331 0.3342 0.6982
vn 0.8389 -0.5435 -0.0287
vn 0.2022 -0.0245 -0.9790
vn -0.5589 0.4395 0.7032
vn 0.8360 -0.5485 -0.0177
vn -0.3779 -0.0221 0.9256
vn 0.8227 -0.5561 0.1177
vn -0.2924 0.9207 -0.2583
vn -0.0156 -0.5977 0.8016
vn 0.4078 0.6477 -0.6435
vn -0.5637 -0.0612 0.8237
vn -0.5919 0.5560 -0.5835
vn 0.6390 -0.6174 0.4588
vn 0.0369 0.5911 -0.8057
vn 0.6168 -0.7784 0.1166
vn -0.9804 0.0748 -0.1823
vn 0.7325 -0.6114 -0.2993
vn -0.9448 0.1684 -0.2810
vn 0.7886 0.6127 -0.0525
vn -0.9969 0.0371 -0.0693
vn -0.0422 0.9974 -0.0575
vn -0.9386 -0.3271 -0.1093
vn 0.7231 -0.6836 0.0989
vn -0.6979 0.6560 -0.2874
vn 0.2380 0.6906 0.6829
vn 0.2383 0.6907 0.6827
vn -0.9821 0.0903 -0.1654
vn 0.5781 0.5544 0.5988
vn 0.8915 -0.4241 -0.1591
vn 0.8788 -0.1543 -0.4515
vn -0.4271 0.0379 0.9034
vn 0.6568 0.0810 -0.7497
vn -0.9657 0.2477 -0.0780
vn 0.9513 -0.2247 -0.2108
vn 0.3393 -0.2176 0.9152
vn -0.3559 -0.2611 0.8973
vn 0.9037 -0.4160 0.1008
vn -0.5950 0.4687 -0.6529
vn -0.7135 0.6524 -0.2554
vn 0.6619 -0.6659 0.3442
vn -0.5536 -0.1171 0.8245
vn 0.8272 -0.4779 -0.2955
vn -0.7835 0.5910 0.1921
vn 0.6217 0.0424 -0.7821
vn 0.7428 -0.5739 -0.3446
vn 0.0831 -0.7963 0.5992
vn -0.6404 0.0390 0.7671
vn 0.6755 0.0043 -0.7374
vn -0.6552 -0.0687 0.7523
vn -0.0217 0.9052 -0.4244
vn -0.6747 0.3489 0.6504
vn -0.6750 0.3486 0.6503
vn 0.9160 0.0952 -0.3897
vn -0.3292 0.1233 0.9362
vn 0.0192 0.1621 0.9866
vn 0.0833 -0.9184 0.3867
vn 0.2888 -0.9453 0.1517
vn -0.5815 0.7148 0.3885
vn -0.5855 0.7114 0.3887
vn -0.0965 0.9829 -0.1565
vn -0.0964 0.9829 -0.1568
vn 0.5763 -0.6441 -0.5029
vn 0.3759 -0.8596 -0.3463
vn 0.4481 -0.8333 -0.3237
vn 0.4299 0.7691 -0.4729
vn -0.7116 -0.1009 0.6953
vn -0.0396 -0.9827 -0.1809
vn -0.0149 0.9986 0.0504
vn 0.4185 0.9082 -0.0065
vn 0.5674 -0.3698 -0.7357
vn -0.0368 0.8288 0.5584
vn -0.7777 -0.3326 0.5335
vn -0.6118 -0.6844 -0.3967
vn -0.3092 -0.5679 -0.7628
vn 0.4208 -0.4768 -0.7718
vn 0.7301 0.0375 -0.6824
vn -0.4714 0.3790 0.7964
vn -0.2406 0.3185 0.9169
vn -0.3736 0.2928 0.8802
vn 0.3275 0.2649 -0.9070
vn 0.7814 0.0679 -0.6203
vn -0.5477 0.0043 0.8367
vn 0.7412 -0.0285 -0.6707
vn -0.8197 -0.1040 0.5632
vn 0.3492 -0.0600 0.9351
vn -0.0988 -0.1279 -0.9869
vn -0.5579 -0.2191 -0.8005
vn -0.1948 0.9559 -0.2199
vn 0.9674 0.2418 0.0760
vn 0.9727 0.0385 -0.2290
vn 0.8424 0.0196 0.5385
vn 0.8424 0.0193 0.5385
vn 0.8426 0.0199 0.5382
vn -0.8846 -0.3908 0.2543
vn 0.3336 -0.1505 0.9306
vn 0.5922 0.6013 0.5364
vn -0.6104 -0.5774 -0.5423
vn 0.6684 0.7434 0.0240
vn -0.2646 0.1968 -0.9441
vn -0.5406 -0.6952 -0.4738
vn -0.6671 -0.1964 -0.7186
vn 0.5293 -0.1566 0.8338
vn -0.4959 -0.7158 -0.4916
vn 0.6090 0.5817 0.5393
vn -0.7675 -0.1300 -0.6277
vn -0.8999 -0.2667 0.3451
vn 0.5562 -0.7580 -0.3407
vn -0.8528 0.3119 0.4188
vn 0.4871 -0.8206 -0.2990
vn -0.1953 0.9670 0.1635
vn 0.4308 -0.7653 -0.4783
vn -0.2924 0.9307 0.2197
vn -0.2397 0.9312 0.2745
vn -0.2490 0.9252 0.2864
vn 0.4203 0.7652 -0.4876
vn -0.6863 -0.1549 0.7107
vn 0.1176 -0.9839 -0.1347
vn 0.1084 0.9664 -0.2329
vn -0.4374 0.5537 0.7086
vn 0.1361 -0.9712 -0.1957
vn -0.1342 -0.0438 0.9900
vn 0.2052 0.8820 0.4242
vn -0.2288 -0.2391 -0.9436
vn 0.0168 0.6226 -0.7824
vn -0.0643 -0.4387 0.8964
vn -0.1824 -0.9163 0.3567
vn 0.1367 0.4437 0.8857
vn -0.1675 -0.0100 -0.9858
vn 0.1117 -0.1176 0.9868
vn 0.1960 0.7267 0.6584
vn -0.1362 -0.0047 -0.9907
vn 0.2898 -0.4330 0.8536
vn -0.1984 -0.6933 -0.6928
vn 0.1934 -0.9185 0.3450
vn 0.1933 0.0181 0.9810
vn -0.2449 0.5456 -0.8015
vn 0.1939 -0.9268 0.3217
vn -0.3997 0.2820 -0.8722
vn -0.3273 0.8730 0.3616
vn -0.2484 0.6387 0.7282
vn -0.7744 0.4392 0.4553
vn -0.1169 -0.0052 -0.9931
vn 0.5284 -0.7435 -0.4098
vn 0.6360 -0.0208 -0.7714
vn 0.5986 -0.3617 0.7147
vn 0.0996 -0.2529 0.9624
vn 0.5209 -0.3448 0.7808
vn 0.5226 -0.2771 0.8063
vn -0.6228 0.2040 -0.7553
vn 0.0220 0.3714 -0.9282
vn 0.3566 -0.2262 0.9065
vn 0.7021 -0.0918 0.7062
vn -0.7402 -0.6218 -0.2559
vn -0.9467 -0.1235 -0.2974
vn 0.0600 -0.3532 0.9336
vn 0.4319 0.5202 0.7368
vn -0.7089 -0.6020 -0.3676
vn 0.4080 0.2935 0.8645
vn 0.1032 -0.5110 0.8533
vn -0.2297 0.2263 -0.9466
vn 0.3796 0.0410 0.9242
vn -0.1480 -0.2985 -0.9429
vn 0.2089 -0.1299 -0.9693
vn 0.5618 -0.7204 -0.4067
vn 0.2419 -0.9322 -0.2691
vn -0.2505 0.2650 -0.9311
vn 0.0671 0.2504 0.9658
vn -0.2475 0.3065 -0.9191
vn 0.1436 -0.0637 0.9876
vn 0.2039 -0.1816 0.9620
vn 0.1747 -0.3506 -0.9201
vn 0.1986 -0.2591 0.9452
vn 0.1727 -0.2131 0.9616
vn -0.4019 0.5595 -0.7249
vn 0.0996 -0.0230 -0.9948
vn -0.6924 0.6293 0.3530
vn 0.3125 0.3466 0.8844
vn 0.1318 0.0114 0.9912
vn -0.1665 -0.0567 -0.9844
vn 0.4154 -0.1614 0.8952
vn -0.6005 0.1199 -0.7906
vn -0.5779 0.2298 0.7831
vn 0.4049 -0.1569 0.9008
vn -0.5900 0.3003 0.7495
vn -0.9868 -0.1355 -0.0888
vn 0.1637 -0.3627 -0.9174
vn -0.1063 -0.3774 -0.9199
vn 0.9788 0.0797 -0.1885
vn -0.5810 -0.7721 -0.2574
vn 0.2437 -0.5399 -0.8056
vn 0.4574 0.7894 0.4094
vn -0.0164 0.6351 0.7723
vn 0.2079 -0.5588 -0.8028
vn 0.2081 -0.5591 -0.8026
vn 0.5230 0.7624 -0.3810
vn -0.3318 0.6432 0.6901
vn -0.0729 -0.9270 -0.3678
vn 0.3327 -0.5994 -0.7281
vn -0.3662 -0.7206 0.5887
usemtl (null).014
s off
f 1//1 2//1 6//1
f 2//2 5//2 6//2
f 6//3 12//3 21//3
f 6//4 21//4 1//4
f 11//5 8//5 24//5
f 11//6 6//6 8//6
f 5//7 7//7 6//7
f 17//8 9//8 4//8
f 83//9 82//9 87//9
f 83//10 20//10 18//10
f 4//11 2//11 18//11
f 21//12 20//12 19//12
f 1//13 21//13 19//13
f 12//14 9//14 21//14
f 21//15 9//15 17//15
f 3//16 9//16 10//16
f 2//17 3//17 5//17
f 4//18 3//18 2//18
f 12//19 6//19 10//19
f 3//20 4//20 9//20
f 11//21 10//21 6//21
f 9//22 12//22 10//22
f 5//23 3//23 7//23
f 3//24 10//24 7//24
f 6//25 7//25 8//25
f 24//26 10//26 11//26
f 22//27 7//27 10//27
f 8//28 7//28 14//28
f 10//29 24//29 22//29
f 7//30 22//30 14//30
f 22//31 24//31 13//31
f 13//32 14//32 22//32
f 8//33 14//33 24//33
f 26//34 13//34 24//34
f 26//35 14//35 13//35
f 24//36 14//36 27//36
f 14//37 26//37 27//37
f 27//38 23//38 24//38
f 23//39 32//39 28//39
f 28//40 25//40 27//40
f 27//41 29//41 23//41
f 26//42 28//42 27//42
f 23//43 28//43 26//43
f 27//44 25//44 29//44
f 23//45 26//45 24//45
f 25//46 32//46 29//46
f 36//47 31//47 32//47
f 33//48 32//48 31//48
f 34//49 31//49 36//49
f 30//50 23//50 29//50
f 23//51 30//51 32//51
f 33//52 30//52 29//52
f 25//53 28//53 32//53
f 32//54 33//54 29//54
f 38//55 42//55 40//55
f 33//56 36//56 30//57
f 32//58 30//58 36//58
f 35//59 36//59 33//59
f 33//60 31//60 35//60
f 35//61 31//61 41//61
f 36//62 41//62 42//62
f 37//63 38//63 48//63
f 34//64 36//64 42//64
f 34//65 41//65 31//65
f 41//66 36//66 35//66
f 44//67 40//67 41//67
f 51//68 41//68 34//68
f 42//69 51//69 34//69
f 38//70 51//70 42//70
f 44//71 41//71 37//71
f 42//72 41//72 40//72
f 51//73 37//73 41//73
f 38//74 40//74 39//74
f 38//75 37//75 51//75
f 37//76 46//76 44//76
f 44//77 46//77 40//77
f 46//78 39//78 40//78
f 48//79 38//79 53//79
f 46//80 49//80 39//80
f 39//81 53//81 38//81
f 49//82 57//82 45//83
f 50//84 47//84 64//84
f 58//85 56//85 62//85
f 58//86 62//86 47//86
f 46//87 48//87 49//87
f 37//88 48//88 46//88
f 53//89 39//89 49//89
f 45//90 53//90 49//90
f 48//91 53//92 45//92
f 49//93 48//93 54//93
f 54//94 48//94 55//94
f 57//95 49//95 54//95
f 55//96 48//96 45//96
f 54//97 61//97 57//97
f 54//98 60//98 61//98
f 45//99 57//99 55//99
f 60//100 55//100 57//100
f 54//101 55//101 60//101
f 59//102 60//102 57//102
f 57//103 61//103 52//103
f 60//104 50//104 52//104
f 50//105 56//105 52//105
f 52//106 61//106 60//106
f 59//107 50//107 60//107
f 57//108 52//108 59//108
f 58//109 59//109 56//109
f 52//110 56//110 59//110
f 69//111 65//111 64//111
f 59//112 58//112 50//112
f 56//113 65//113 63//113
f 47//114 50//114 58//114
f 62//115 56//115 63//115
f 70//116 65//116 69//116
f 64//117 65//117 56//117
f 64//118 56//118 50//118
f 68//119 66//119 43//119
f 64//120 63//120 70//120
f 47//121 63//121 64//121
f 63//122 47//123 62//124
f 65//125 70//125 63//125
f 70//126 66//126 64//126
f 71//127 67//127 43//127
f 66//128 70//128 67//128
f 66//129 68//129 69//129
f 66//130 69//130 64//130
f 43//131 66//131 72//131
f 70//132 69//132 68//132
f 70//133 68//133 67//133
f 67//134 68//134 43//134
f 66//135 67//135 71//135
f 66//136 71//136 72//136
f 73//137 43//137 72//137
f 74//138 71//138 43//138
f 74//139 43//139 73//139
f 74//140 75//140 71//140
f 71//141 73//141 72//141
f 79//142 75//142 74//142
f 71//143 75//143 73//143
f 75//144 76//144 77//144
f 73//145 75//145 77//145
f 75//146 79//146 76//146
f 79//147 74//147 73//147
f 79//148 73//148 77//148
f 79//149 78//149 76//149
f 77//150 76//150 78//150
f 77//151 78//151 79//151
f 17//152 4//152 18//152
f 18//153 2//153 84//153
f 19//154 84//154 1//154
f 2//155 1//155 84//155
f 17//156 20//156 21//156
f 20//157 16//157 19//157
f 20//158 17//158 18//158
f 19//159 16//159 84//159
f 20//160 83//160 80//160
f 83//161 18//161 84//161
f 82//162 84//162 16//162
f 15//163 86//163 89//163
f 16//164 20//164 80//164
f 80//165 82//165 16//165
f 80//166 83//166 15//166
f 82//167 83//167 84//167
f 82//168 80//168 15//168
f 87//169 94//169 81//169
f 15//170 83//170 87//170
f 86//171 15//171 87//171
f 87//172 81//172 86//172
f 82//173 89//173 87//173
f 15//174 89//174 82//174
f 85//175 87//175 89//175
f 86//176 90//176 89//176
f 90//177 86//177 81//177
f 89//178 90//178 85//178
f 94//179 87//179 85//179
f 90//180 81//180 94//180
f 94//181 85//181 92//181
f 85//182 90//182 91//182
f 91//183 92//183 85//183
f 91//184 94//184 93//184
f 90//185 94//185 88//185
f 90//186 88//186 91//186
f 94//187 92//187 97//187
f 91//188 88//188 94//188
f 92//189 91//189 97//189
f 91//190 93//190 95//190
f 93//191 94//191 97//191
f 91//192 95//192 97//192
f 96//193 95//193 93//193
f 100//194 98//194 103//194
f 101//195 98//195 100//195
f 95//196 96//196 101//196
f 97//197 96//197 93//197
f 98//198 97//198 99//198
f 97//199 98//199 96//199
f 97//200 95//200 99//200
f 95//201 101//201 99//201
f 96//202 98//202 101//202
f 100//203 104//203 99//203
f 99//204 101//204 100//204
f 98//205 99//205 104//205
f 106//206 102//206 103//206
f 103//207 98//207 104//207
f 105//208 102//208 110//208
f 104//209 102//209 105//209
f 103//210 104//210 106//210
f 104//211 100//211 102//211
f 106//212 104//212 105//212
f 113//213 109//213 110//213
f 100//214 103//214 102//214
f 107//215 105//215 110//215
f 105//216 107//216 106//216
f 102//217 106//217 108//217
f 107//218 108//218 106//218
f 110//219 102//219 108//219
f 107//220 110//220 109//220
f 112//221 108//221 107//221
f 108//222 112//222 113//222
f 110//223 108//223 113//223
f 107//224 109//225 112//225
f 113//226 112//226 111//226
f 113//227 111//227 114//227
f 111//228 112//228 109//228
f 111//229 109//229 114//229
f 109//230 113//230 114//230
